<svg width="1642" height="215" viewBox="0 0 1642 215" fill="none" xmlns="http://www.w3.org/2000/svg">
<path d="M138.655 71.128C137.268 66.3058 135.319 62.0452 132.809 58.346C130.299 54.5808 127.227 51.4101 123.594 48.8339C120.027 46.1916 115.931 44.1769 111.307 42.7897C106.749 41.4026 101.696 40.709 96.1474 40.709C85.7766 40.709 76.6608 43.2852 68.8001 48.4376C61.0054 53.59 54.9282 61.0874 50.5685 70.9298C46.2087 80.7061 44.0289 92.6624 44.0289 106.798C44.0289 120.935 46.1757 132.957 50.4694 142.865C54.7631 152.774 60.8403 160.337 68.701 165.556C76.5617 170.708 85.8426 173.284 96.5438 173.284C106.254 173.284 114.544 171.567 121.414 168.132C128.35 164.631 133.634 159.71 137.268 153.368C140.967 147.027 142.816 139.529 142.816 130.876L151.536 132.164H99.2191V99.8625H184.135V125.426C184.135 143.262 180.369 158.587 172.839 171.402C165.309 184.151 154.938 193.993 141.726 200.929C128.515 207.799 113.388 211.234 96.3456 211.234C77.3213 211.234 60.6091 207.039 46.2087 198.65C31.8084 190.195 20.5788 178.206 12.52 162.682C4.52712 147.093 0.530701 128.597 0.530701 107.195C0.530701 90.7467 2.90873 76.0822 7.6648 63.2012C12.4869 50.2541 19.2247 39.2887 27.8781 30.3051C36.5315 21.3214 46.6051 14.4845 58.0989 9.79453C69.5927 5.10452 82.0444 2.75952 95.4538 2.75952C106.948 2.75952 117.649 4.44396 127.557 7.81284C137.466 11.1157 146.251 15.8057 153.914 21.8829C161.642 27.9601 167.951 35.1932 172.839 43.5824C177.727 51.9055 180.865 61.0874 182.252 71.128H138.655Z" fill="white"/>
<path d="M196.297 5.53389H244.353L290.626 92.9266H292.608L338.88 5.53389H386.936L312.92 136.722V208.459H270.314V136.722L196.297 5.53389Z" fill="white"/>
<path d="M410.37 5.53389H463.281L519.165 141.874H521.543L577.427 5.53389H630.338V208.459H588.722V76.3794H587.038L534.523 207.469H506.185L453.67 75.884H451.985V208.459H410.37V5.53389Z" fill="white"/>
<path d="M680.671 211.566V3.08392H687.186V104.067H819.93V3.08392H826.446V211.566H819.93V110.582H687.186V211.566H680.671Z" fill="white"/>
<path d="M973.168 211.566V3.08392H1084.33V9.59897H979.683V104.067H1078.22V110.582H979.683V205.051H1087.18V211.566H973.168Z" fill="white"/>
<path d="M1222.27 211.566V3.08392H1283.35C1295.02 3.08392 1305.34 5.561 1314.3 10.5152C1323.32 15.4693 1330.38 22.3915 1335.47 31.2819C1340.63 40.1722 1343.21 50.5895 1343.21 62.5338C1343.21 74.3423 1340.63 84.6918 1335.47 93.5821C1330.38 102.405 1323.32 109.293 1314.3 114.247C1305.34 119.133 1295.02 121.576 1283.35 121.576H1225.53V115.061H1283.35C1293.8 115.061 1303.03 112.89 1311.04 108.546C1319.05 104.203 1325.33 98.0951 1329.87 90.2228C1334.42 82.3504 1336.69 73.1207 1336.69 62.5338C1336.69 51.8789 1334.42 42.5814 1329.87 34.6412C1325.33 26.701 1319.05 20.5592 1311.04 16.2158C1303.03 11.8046 1293.8 9.59897 1283.35 9.59897H1228.79V211.566H1222.27ZM1301.67 116.69L1352.98 211.566H1345.65L1294.35 116.69H1301.67Z" fill="white"/>
<path d="M1641.18 107.325C1641.18 128.567 1637.55 147.229 1630.28 163.314C1623.02 179.398 1612.91 191.953 1599.95 200.979C1586.99 209.937 1571.95 214.416 1554.85 214.416C1537.68 214.416 1522.62 209.903 1509.65 200.877C1496.69 191.851 1486.58 179.296 1479.32 163.212C1472.12 147.128 1468.53 128.499 1468.53 107.325C1468.53 86.083 1472.16 67.454 1479.42 51.4378C1486.68 35.3538 1496.79 22.7987 1509.76 13.7727C1522.72 4.74661 1537.75 0.233582 1554.85 0.233582C1571.95 0.233582 1586.99 4.74661 1599.95 13.7727C1612.91 22.7309 1623.02 35.252 1630.28 51.336C1637.55 67.4201 1641.18 86.083 1641.18 107.325ZM1634.66 107.325C1634.66 87.3724 1631.3 69.8632 1624.58 54.7972C1617.86 39.6632 1608.5 27.8886 1596.49 19.4734C1584.54 10.9902 1570.66 6.74863 1554.85 6.74863C1539.11 6.74863 1525.23 10.9563 1513.22 19.3716C1501.27 27.719 1491.91 39.4596 1485.12 54.5936C1478.4 69.6596 1475.04 87.2367 1475.04 107.325C1475.04 127.141 1478.37 144.617 1485.02 159.751C1491.67 174.817 1500.97 186.625 1512.91 195.176C1524.92 203.659 1538.9 207.901 1554.85 207.901C1570.66 207.901 1584.58 203.693 1596.59 195.278C1608.6 186.795 1617.97 175.02 1624.69 159.954C1631.4 144.82 1634.73 127.277 1634.66 107.325Z" fill="white"/>
</svg>
