<svg width="2159" height="448" viewBox="0 0 2159 448" fill="none" xmlns="http://www.w3.org/2000/svg">
<path d="M196.396 177.713C194.609 171.504 192.1 166.017 188.868 161.254C185.635 156.405 181.68 152.322 177.001 149.005C172.408 145.602 167.134 143.008 161.18 141.222C155.311 139.435 148.803 138.542 141.658 138.542C128.303 138.542 116.565 141.86 106.442 148.495C96.4051 155.129 88.5794 164.784 82.9653 177.458C77.3512 190.047 74.5441 205.444 74.5441 223.647C74.5441 241.85 77.3086 257.332 82.8377 270.091C88.3667 282.85 96.1924 292.59 106.315 299.31C116.437 305.945 128.388 309.262 142.169 309.262C154.673 309.262 165.348 307.05 174.194 302.627C183.126 298.119 189.931 291.782 194.609 283.616C199.373 275.45 201.755 265.795 201.755 254.652L212.983 256.311H145.614V214.715H254.961V247.635C254.961 270.601 250.112 290.336 240.415 306.838C230.718 323.255 217.363 335.929 200.351 344.861C183.339 353.707 163.859 358.13 141.913 358.13C117.415 358.13 95.8947 352.729 77.3512 341.926C58.8076 331.038 44.3471 315.599 33.9695 295.61C23.677 275.535 18.5307 251.717 18.5307 224.157C18.5307 202.977 21.5929 184.093 27.7174 167.506C33.9269 150.834 42.6033 136.713 53.7464 125.145C64.8896 113.577 77.8615 104.773 92.6623 98.7332C107.463 92.6938 123.497 89.6741 140.765 89.6741C155.566 89.6741 169.346 91.8432 182.105 96.1814C194.865 100.434 206.178 106.474 216.045 114.3C225.997 122.125 234.121 131.44 240.415 142.243C246.71 152.96 250.75 164.784 252.537 177.713H196.396ZM270.623 93.2467H332.506L392.092 205.784H394.644L454.23 93.2467H516.112L420.8 262.18V354.558H365.935V262.18L270.623 93.2467ZM546.288 93.2467H614.423L686.385 268.815H689.448L761.41 93.2467H829.545V354.558H775.956V184.476H773.787L706.162 353.282H669.671L602.046 183.838H599.877V354.558H546.288V93.2467Z" fill="white"/>
<path d="M894.36 358.558V90.0919H902.75V220.13H1073.69V90.0919H1082.08V358.558H1073.69V228.52H902.75V358.558H894.36ZM1271.01 358.558V90.0919H1414.16V98.4814H1279.4V220.13H1406.29V228.52H1279.4V350.168H1417.83V358.558H1271.01ZM1591.79 358.558V90.0919H1670.44C1685.47 90.0919 1698.76 93.2816 1710.29 99.6612C1721.92 106.041 1731 114.955 1737.56 126.403C1744.2 137.851 1747.52 151.266 1747.52 166.647C1747.52 181.853 1744.2 195.18 1737.56 206.628C1731 217.989 1721.92 226.859 1710.29 233.239C1698.76 239.531 1685.47 242.677 1670.44 242.677H1595.99V234.287H1670.44C1683.9 234.287 1695.79 231.491 1706.1 225.898C1716.41 220.305 1724.49 212.44 1730.35 202.302C1736.2 192.165 1739.13 180.28 1739.13 166.647C1739.13 152.926 1736.2 140.954 1730.35 130.729C1724.49 120.504 1716.41 112.595 1706.1 107.002C1695.79 101.322 1683.9 98.4814 1670.44 98.4814H1600.18V358.558H1591.79ZM1694.04 236.385L1760.11 358.558H1750.67L1684.6 236.385H1694.04ZM2131.22 224.325C2131.22 251.678 2126.55 275.711 2117.19 296.422C2107.84 317.134 2094.82 333.302 2078.13 344.925C2061.44 356.46 2042.08 362.228 2020.06 362.228C1997.95 362.228 1978.55 356.417 1961.86 344.794C1945.16 333.17 1932.14 317.003 1922.79 296.291C1913.53 275.58 1908.9 251.591 1908.9 224.325C1908.9 196.971 1913.57 172.982 1922.92 152.358C1932.27 131.646 1945.3 115.479 1961.99 103.856C1978.68 92.2329 1998.04 86.4214 2020.06 86.4214C2042.08 86.4214 2061.44 92.2329 2078.13 103.856C2094.82 115.392 2107.84 131.515 2117.19 152.227C2126.55 172.939 2131.22 196.971 2131.22 224.325ZM2122.83 224.325C2122.83 198.632 2118.51 176.085 2109.85 156.684C2101.2 137.196 2089.14 122.033 2073.67 111.197C2058.29 100.273 2040.42 94.811 2020.06 94.811C1999.78 94.811 1981.91 100.229 1966.44 111.066C1951.06 121.815 1939 136.934 1930.26 156.422C1921.61 175.823 1917.29 198.457 1917.29 224.325C1917.29 249.843 1921.57 272.346 1930.13 291.834C1938.7 311.235 1950.67 326.441 1966.05 337.453C1981.52 348.377 1999.52 353.838 2020.06 353.838C2040.42 353.838 2058.34 348.42 2073.8 337.584C2089.27 326.66 2101.33 311.497 2109.98 292.097C2118.64 272.608 2122.92 250.018 2122.83 224.325Z" fill="white"/>
</svg>
