<svg width="1626" height="1236" viewBox="0 0 1626 1236" fill="none" xmlns="http://www.w3.org/2000/svg">
<g filter="url(#filter0_d_1_31)">
<circle cx="1033.97" cy="601.244" r="546.761" fill="#F89C32"/>
</g>
<path d="M799.196 481.63C797.409 475.42 794.9 469.934 791.668 465.17C788.435 460.322 784.48 456.239 779.802 452.921C775.208 449.519 769.934 446.924 763.98 445.138C758.111 443.352 751.603 442.459 744.458 442.459C731.103 442.459 719.365 445.776 709.242 452.411C699.205 459.046 691.379 468.7 685.765 481.375C680.151 493.964 677.344 509.36 677.344 527.563C677.344 545.767 680.109 561.248 685.638 574.007C691.167 586.766 698.992 596.506 709.115 603.226C719.237 609.861 731.189 613.178 744.969 613.178C757.473 613.178 768.148 610.967 776.994 606.543C785.926 602.035 792.731 595.698 797.409 587.532C802.173 579.366 804.555 569.712 804.555 558.568L815.783 560.227H748.414V518.632H857.761V551.551C857.761 574.518 852.912 594.252 843.215 610.754C833.518 627.171 820.164 639.845 803.151 648.777C786.139 657.623 766.659 662.046 744.713 662.046C720.215 662.046 698.695 656.645 680.151 645.842C661.608 634.954 647.147 619.515 636.77 599.526C626.477 579.451 621.331 555.634 621.331 528.074C621.331 506.893 624.393 488.009 630.517 471.422C636.727 454.75 645.403 440.63 656.546 429.061C667.69 417.493 680.662 408.689 695.462 402.649C710.263 396.61 726.297 393.59 743.565 393.59C758.366 393.59 772.146 395.759 784.905 400.098C797.665 404.351 808.978 410.39 818.845 418.216C828.797 426.042 836.921 435.356 843.215 446.159C849.51 456.877 853.55 468.7 855.337 481.63H799.196ZM873.423 397.163H935.306L994.892 509.7H997.444L1057.03 397.163H1118.91L1023.6 566.096V658.474H968.735V566.096L873.423 397.163ZM1149.09 397.163H1217.22L1289.19 572.731H1292.25L1364.21 397.163H1432.35V658.474H1378.76V488.392H1376.59L1308.96 657.198H1272.47L1204.85 487.754H1202.68V658.474H1149.09V397.163Z" fill="black"/>
<path d="M658.146 884.474V715.124H663.438V797.153H771.266V715.124H776.559V884.474H771.266V802.445H663.438V884.474H658.146ZM895.741 884.474V715.124H986.039V720.416H901.033V797.153H981.077V802.445H901.033V879.182H988.354V884.474H895.741ZM1098.09 884.474V715.124H1147.7C1157.18 715.124 1165.56 717.136 1172.84 721.161C1180.17 725.185 1185.91 730.808 1190.04 738.029C1194.23 745.251 1196.33 753.713 1196.33 763.415C1196.33 773.007 1194.23 781.414 1190.04 788.636C1185.91 795.802 1180.17 801.398 1172.84 805.422C1165.56 809.391 1157.18 811.376 1147.7 811.376H1100.74V806.083H1147.7C1156.19 806.083 1163.69 804.319 1170.19 800.791C1176.7 797.263 1181.8 792.302 1185.49 785.907C1189.19 779.512 1191.03 772.015 1191.03 763.415C1191.03 754.76 1189.19 747.208 1185.49 740.758C1181.8 734.308 1176.7 729.319 1170.19 725.791C1163.69 722.208 1156.19 720.416 1147.7 720.416H1103.38V884.474H1098.09ZM1162.59 807.407L1204.26 884.474H1198.31L1156.63 807.407H1162.59ZM1438.36 799.799C1438.36 817.054 1435.42 832.214 1429.52 845.279C1423.62 858.344 1415.4 868.542 1404.87 875.874C1394.35 883.151 1382.14 886.789 1368.24 886.789C1354.3 886.789 1342.06 883.123 1331.53 875.791C1321 868.46 1312.79 858.261 1306.89 845.196C1301.04 832.131 1298.12 816.999 1298.12 799.799C1298.12 782.544 1301.07 767.412 1306.97 754.402C1312.87 741.337 1321.08 731.139 1331.61 723.807C1342.14 716.475 1354.35 712.809 1368.24 712.809C1382.14 712.809 1394.35 716.475 1404.87 723.807C1415.4 731.083 1423.62 741.254 1429.52 754.319C1435.42 767.384 1438.36 782.544 1438.36 799.799ZM1433.07 799.799C1433.07 783.592 1430.34 769.369 1424.89 757.131C1419.43 744.838 1411.82 735.273 1402.06 728.437C1392.36 721.546 1381.09 718.101 1368.24 718.101C1355.45 718.101 1344.18 721.519 1334.42 728.355C1324.72 735.135 1317.11 744.672 1311.6 756.965C1306.14 769.204 1303.41 783.481 1303.41 799.799C1303.41 815.896 1306.12 830.091 1311.52 842.385C1316.92 854.623 1324.47 864.215 1334.17 871.161C1343.93 878.052 1355.29 881.497 1368.24 881.497C1381.09 881.497 1392.39 878.079 1402.15 871.243C1411.9 864.353 1419.51 854.788 1424.97 842.55C1430.43 830.257 1433.13 816.006 1433.07 799.799Z" fill="black"/>
<path d="M687.958 3.39415C670.858 9.29415 658.358 17.6941 643.258 33.4941C623.358 54.0941 609.458 80.9941 602.458 112.094C599.158 126.794 599.058 126.994 594.858 126.294C592.458 125.894 589.558 126.394 586.358 127.694L581.358 129.594L578.958 126.994C577.558 125.494 576.458 123.894 576.458 123.494C576.458 121.694 570.258 122.694 563.958 125.594C560.358 127.194 557.058 128.594 556.658 128.594C555.258 128.594 550.858 133.994 549.558 137.294C548.758 139.094 547.358 140.694 545.958 140.994C544.758 141.294 533.658 141.994 521.358 142.594C446.258 145.994 402.258 148.994 371.958 152.594C354.258 154.794 344.158 152.294 330.958 142.594C322.458 136.294 320.358 136.294 315.658 142.594C311.558 147.994 308.158 149.694 305.858 147.394C304.958 146.594 303.258 142.994 302.058 139.494C295.158 119.994 288.958 108.094 276.858 92.0941C256.458 64.7941 235.458 49.7941 208.158 42.8941C198.958 40.4941 196.158 40.2941 178.958 40.2941C147.358 40.2941 119.958 44.9941 85.9576 56.0941C65.9576 62.5941 51.6576 71.0941 39.2576 83.7941C21.1576 102.194 8.85757 129.394 2.25757 165.094C0.157569 176.794 0.657569 205.094 3.25757 217.694C8.05757 240.894 17.5576 263.794 31.0576 284.094C37.7576 294.394 52.8576 310.494 62.4576 317.694C75.2576 327.394 95.9576 336.294 113.458 339.694C123.258 341.594 142.958 341.194 157.958 338.694C165.158 337.494 177.758 335.594 185.958 334.494C224.958 329.294 244.158 322.694 262.158 308.294C266.758 304.594 271.058 301.794 271.558 302.094C272.058 302.494 272.458 303.694 272.458 304.894C272.458 308.094 277.058 322.394 282.958 337.494C285.858 344.994 288.558 352.094 288.858 353.294C289.258 354.494 291.558 358.394 293.858 361.794L298.158 368.094L298.758 379.594C299.258 391.194 300.058 395.094 305.458 412.594C307.058 417.794 309.358 425.894 310.458 430.594C316.258 454.194 320.358 464.594 328.658 476.894L332.658 482.794L332.258 500.394C331.858 517.394 331.658 518.494 328.458 527.594C325.558 536.094 325.158 538.394 324.858 549.594C324.758 556.994 323.958 564.494 323.058 568.094C320.158 578.694 318.458 593.194 318.458 606.294C318.458 627.394 321.958 642.294 332.058 664.394C333.358 667.294 334.458 669.794 334.458 669.994C334.458 670.294 336.058 673.894 338.058 678.294C348.858 701.894 353.558 710.394 363.158 723.894C366.558 728.794 371.758 737.494 374.558 743.394C379.158 752.794 380.858 755.094 388.458 762.594C393.258 767.294 397.758 772.194 398.458 773.594C399.158 774.894 400.158 779.194 400.658 783.094C401.058 786.894 401.758 791.694 402.058 793.794C402.558 796.894 402.258 797.594 400.258 798.894C397.458 800.694 386.858 802.594 379.358 802.594C374.258 802.694 358.558 804.594 351.958 806.094C330.158 810.794 305.958 820.194 288.958 830.594C285.558 832.594 282.158 834.494 281.458 834.794C277.558 836.294 248.358 858.794 243.958 863.494C243.058 864.594 241.958 866.994 241.558 868.694C240.958 871.494 240.358 872.094 235.958 873.294C225.858 876.094 216.058 881.194 211.858 885.794C206.158 892.094 205.258 895.494 204.958 911.094C204.858 918.794 204.258 939.694 203.558 957.594C202.258 990.794 202.658 1028.39 204.458 1042.39C205.758 1051.59 206.358 1054.79 212.058 1078.29C218.558 1105.19 221.058 1125.09 218.758 1133.39C218.258 1135.49 217.758 1135.69 214.658 1135.09C211.458 1134.49 210.758 1134.79 207.958 1138.19C204.958 1141.79 204.658 1141.89 202.558 1140.39C201.258 1139.49 198.658 1136.39 196.758 1133.39C189.958 1123.19 184.358 1118.99 182.858 1123.09C181.858 1125.49 187.158 1133.29 191.958 1136.59C194.458 1138.29 197.258 1140.79 198.158 1142.19C199.758 1144.69 199.758 1144.79 191.658 1152.79C187.158 1157.19 182.158 1163.19 180.458 1166.09C177.058 1172.09 176.958 1172.59 178.858 1172.59C180.158 1172.59 182.858 1169.69 189.658 1161.29C191.058 1159.49 193.558 1157.39 195.158 1156.59C196.658 1155.79 199.158 1154.39 200.658 1153.39C202.458 1152.09 203.558 1151.89 203.958 1152.69C204.958 1154.19 183.158 1175.59 180.658 1175.59C177.658 1175.59 175.458 1178.79 175.458 1183.19C175.458 1185.89 174.558 1188.69 172.558 1191.69C168.058 1198.79 165.258 1200.59 153.758 1203.59C148.158 1204.99 137.858 1212.89 135.458 1217.69C132.458 1223.39 132.758 1229.69 136.158 1233.09L138.958 1235.89L169.458 1235.19C186.258 1234.89 212.158 1234.19 226.958 1233.69C241.858 1233.19 264.258 1232.39 276.758 1231.99C298.258 1231.29 299.658 1231.19 301.058 1229.19C302.958 1226.39 302.858 1221.69 300.558 1215.39C299.558 1212.49 298.158 1205.59 297.558 1199.99C296.358 1189.29 294.358 1182.19 287.458 1163.59C282.858 1150.99 280.458 1147.59 276.458 1147.59C274.958 1147.59 272.958 1146.69 271.858 1145.49C270.058 1143.49 269.958 1141.59 269.958 1117.69C269.958 1084.69 272.258 1068.79 280.458 1046.59C285.258 1033.29 286.758 1023.29 286.858 1004.09C286.958 985.394 285.758 978.094 280.258 962.794C278.458 957.894 277.558 954.094 278.058 953.594C279.058 952.594 290.658 949.794 299.458 948.494C303.258 947.894 307.058 948.094 311.958 949.094C335.858 953.994 355.558 956.794 366.558 956.794C378.258 956.794 381.958 956.094 400.458 950.594C404.058 949.494 418.258 945.394 431.958 941.494C464.158 932.394 481.858 926.494 493.358 921.194C498.758 918.694 502.558 919.794 511.458 926.594C522.958 935.394 531.458 943.994 535.158 950.594C536.858 953.594 539.858 960.794 541.758 966.594C554.658 1005.09 571.158 1033.69 595.258 1058.79C606.858 1070.79 615.058 1077.09 632.658 1087.49C646.258 1095.39 646.758 1095.59 664.658 1099.99C689.258 1106.09 702.458 1107.99 714.058 1107.19C722.458 1106.59 723.758 1106.69 729.458 1108.99C737.558 1112.29 746.958 1114.19 761.958 1115.59C768.458 1116.19 776.858 1117.09 780.458 1117.59C784.058 1118.09 795.258 1118.79 805.458 1119.09C828.058 1119.89 840.058 1122.09 845.858 1126.69C848.558 1128.79 851.158 1135.29 849.858 1136.59C848.858 1137.39 833.658 1139.59 828.558 1139.59C824.958 1139.59 817.858 1143.09 817.058 1145.29C816.358 1147.09 817.258 1149.29 819.058 1149.99C819.858 1150.29 822.458 1149.89 824.758 1149.09C827.058 1148.29 830.058 1147.59 831.458 1147.59C832.958 1147.59 834.458 1147.19 834.958 1146.69C836.558 1145.29 842.158 1144.39 842.858 1145.49C843.158 1145.99 842.358 1147.29 840.958 1148.39C834.858 1153.19 827.158 1165.69 824.558 1175.09C822.858 1181.19 825.458 1178.79 830.958 1168.99C837.758 1156.79 850.958 1143.99 854.458 1146.09C855.758 1146.89 855.758 1156.79 854.358 1164.19C853.758 1167.39 852.058 1172.29 850.458 1175.09C848.158 1179.29 847.858 1180.59 848.658 1182.99C850.558 1188.19 846.158 1191.39 831.758 1195.69C824.358 1197.89 819.458 1205.69 820.858 1212.99C822.258 1219.79 821.158 1219.59 858.458 1219.59C889.958 1219.59 892.558 1219.49 898.458 1217.49C907.658 1214.49 912.158 1210.99 922.358 1198.69C935.658 1182.69 939.758 1179.19 960.158 1166.19L963.458 1164.09V1151.19C963.458 1136.69 961.558 1128.99 955.958 1120.39C951.458 1113.49 925.958 1087.79 922.858 1086.99C921.358 1086.59 917.958 1086.79 915.258 1087.49C905.358 1089.69 903.258 1089.29 875.958 1079.89C841.258 1067.89 821.758 1059.19 802.458 1046.89C790.358 1039.19 785.058 1036.59 774.058 1032.69C757.858 1026.99 743.558 1025.49 717.758 1026.99C704.358 1027.79 703.458 1027.79 699.158 1025.69C689.758 1021.19 685.558 1014.39 676.458 988.994C662.258 949.694 653.158 930.894 635.958 905.594C625.958 890.794 623.558 884.294 616.058 850.894C613.158 837.994 608.058 823.894 601.758 811.094C591.958 791.394 584.158 778.594 576.758 769.994C572.058 764.394 567.858 758.394 565.858 753.794C563.958 749.894 562.458 746.394 562.458 746.094C562.458 745.894 559.758 739.994 556.458 732.994C553.158 726.094 550.458 720.194 550.458 719.994C550.458 719.794 549.158 716.794 547.658 713.394C541.958 700.794 537.858 688.494 535.558 677.094C534.858 673.794 533.258 667.694 531.958 663.494C529.558 655.894 526.458 638.294 526.458 631.694C526.358 629.694 525.558 624.094 524.558 619.194L522.758 610.194L525.158 604.194C528.358 596.294 530.458 584.294 530.558 572.594C530.558 567.394 530.958 558.394 531.358 552.594C531.958 542.894 532.358 541.694 535.358 537.294C538.958 532.094 541.258 526.694 544.458 516.094C545.558 512.194 547.358 507.294 548.358 505.094C553.858 493.194 555.558 482.394 554.058 469.094C552.658 456.494 552.858 446.994 554.758 434.594C557.058 419.394 556.958 404.494 554.458 393.194C550.458 375.194 552.158 359.394 560.458 337.594C570.058 312.094 581.058 275.494 584.458 257.594C588.358 236.694 590.558 227.194 593.658 218.094C596.558 209.194 601.158 199.994 602.158 200.894C602.458 201.194 604.358 206.594 606.458 212.894C612.358 230.494 619.558 244.094 631.558 260.094C649.258 283.894 671.258 298.594 698.558 304.994C713.258 308.394 760.358 310.994 794.458 310.394C815.758 309.994 818.858 309.694 827.658 307.294C846.758 302.194 862.858 292.894 876.358 279.294C886.158 269.394 890.658 263.394 898.858 249.594C907.358 235.194 912.758 223.794 917.058 210.994C920.858 199.694 921.258 198.494 923.758 185.094C930.758 148.794 925.058 105.994 908.458 70.8941C893.658 39.5941 866.358 12.5941 839.858 2.99415L833.358 0.594147H764.658L695.958 0.694147L687.958 3.39415ZM543.258 161.394C548.658 164.094 551.058 165.594 551.558 166.794C554.558 172.794 554.758 173.594 553.758 174.794C552.458 176.394 551.658 181.294 550.458 195.094C549.158 209.794 548.458 214.894 547.358 215.994C546.858 216.594 546.458 217.994 546.458 219.294C546.458 220.594 546.058 222.394 545.558 223.394C545.058 224.294 544.158 226.394 543.458 228.094C540.658 234.894 539.858 236.294 537.258 240.294C535.758 242.594 534.458 244.694 534.458 245.094C534.458 245.494 533.158 247.594 531.658 249.894C529.058 253.894 525.158 261.594 523.458 266.094C523.058 267.194 521.758 270.094 520.558 272.394C519.458 274.794 518.458 277.594 518.458 278.594C518.458 279.694 518.058 280.794 517.458 281.094C516.958 281.394 516.458 282.794 516.458 284.094C516.458 285.394 516.058 286.794 515.458 287.094C514.958 287.394 514.458 288.794 514.458 290.094C514.458 291.394 514.058 292.794 513.458 293.094C512.958 293.394 512.458 294.794 512.458 296.094C512.458 297.394 512.058 298.794 511.458 299.094C510.958 299.394 510.458 300.594 510.458 301.694C510.458 302.694 510.058 304.394 509.558 305.394C509.058 306.294 508.158 309.094 507.458 311.594C506.758 314.094 505.858 316.894 505.358 317.794C504.858 318.794 504.458 320.494 504.458 321.494C504.458 322.594 504.058 323.794 503.458 324.094C502.958 324.394 502.458 325.794 502.458 327.094C502.458 328.394 502.058 329.794 501.458 330.094C500.958 330.394 500.458 331.594 500.458 332.694C500.458 333.694 500.058 335.394 499.558 336.394C498.158 339.194 492.258 351.894 491.258 354.594C490.658 355.994 489.858 357.894 489.358 358.794C488.858 359.794 488.458 361.494 488.458 362.494C488.458 363.594 488.058 364.794 487.458 365.094C486.958 365.394 486.458 366.994 486.458 368.494C486.458 369.994 486.058 371.594 485.558 372.194C485.058 372.694 484.358 375.094 484.058 377.594C483.758 380.094 483.058 384.794 482.458 388.094C481.858 391.394 481.058 396.294 480.858 399.094C480.558 401.794 479.858 404.494 479.358 404.994C478.858 405.594 478.458 407.494 478.458 409.294C478.458 411.094 477.558 414.094 476.558 415.994C475.158 418.494 474.658 421.094 474.758 425.694C474.858 430.194 474.558 432.094 473.558 432.394C472.058 432.894 466.458 438.594 466.458 439.594C466.458 440.994 461.158 443.794 458.758 443.794C457.458 443.794 455.358 442.894 454.158 441.794C452.958 440.694 450.858 439.594 449.558 439.394C446.458 438.994 443.558 430.794 445.258 427.294C445.858 426.094 446.558 422.194 446.758 418.594C447.058 414.994 447.758 410.294 448.258 408.094C448.858 405.894 449.658 402.694 449.958 401.094C450.358 399.394 450.958 397.194 451.458 396.094C455.258 387.194 453.958 354.094 449.458 343.094C446.358 335.494 444.658 332.694 440.958 328.694C438.458 325.894 436.458 322.694 436.058 320.594C433.658 308.094 432.758 305.994 429.358 304.494C426.758 303.494 425.458 303.694 419.658 305.994C411.558 309.094 410.458 309.194 410.458 306.694C410.458 304.394 404.758 295.594 403.358 295.594C402.858 295.594 402.458 295.994 402.458 296.394C402.458 298.094 395.258 305.594 393.558 305.594C390.258 305.594 388.458 303.194 387.758 297.894C387.058 291.694 385.558 289.894 382.558 291.794C380.758 292.894 380.258 292.794 378.958 291.094C378.058 289.994 376.958 288.094 376.458 286.794C374.358 281.894 367.758 285.994 368.958 291.394C369.658 294.894 368.758 295.794 363.858 296.194C362.058 296.394 358.358 297.194 355.758 298.094C348.258 300.594 345.658 299.594 340.858 292.294C336.258 285.194 324.458 261.594 324.458 259.494C324.458 258.694 324.058 257.594 323.658 257.094C323.158 256.494 322.258 254.094 321.558 251.594C320.858 249.094 319.858 246.194 319.458 245.094C318.658 243.094 318.258 241.594 316.458 230.594C314.958 221.894 314.158 209.994 314.758 207.394C315.458 204.894 318.658 200.594 319.858 200.594C320.158 200.594 323.458 198.794 327.058 196.594C330.658 194.394 333.858 192.594 334.158 192.594C334.358 192.594 336.558 191.194 338.958 189.594C341.358 187.894 343.658 186.594 344.058 186.594C346.158 186.594 348.458 182.994 348.458 179.694C348.558 174.194 350.058 172.994 357.958 172.194C361.858 171.794 369.058 171.094 373.958 170.594C412.158 166.594 447.358 164.294 490.258 162.794C505.258 162.294 517.858 161.594 518.158 161.194C519.158 160.294 541.258 160.494 543.258 161.394Z" fill="black"/>
<defs>
<filter id="filter0_d_1_31" x="487.204" y="54.4829" width="1138.52" height="1130.52" filterUnits="userSpaceOnUse" color-interpolation-filters="sRGB">
<feFlood flood-opacity="0" result="BackgroundImageFix"/>
<feColorMatrix in="SourceAlpha" type="matrix" values="0 0 0 0 0 0 0 0 0 0 0 0 0 0 0 0 0 0 127 0" result="hardAlpha"/>
<feOffset dx="41" dy="33"/>
<feGaussianBlur stdDeviation="2"/>
<feComposite in2="hardAlpha" operator="out"/>
<feColorMatrix type="matrix" values="0 0 0 0 0.4875 0 0 0 0 0.4875 0 0 0 0 0.4875 0 0 0 0.25 0"/>
<feBlend mode="normal" in2="BackgroundImageFix" result="effect1_dropShadow_1_31"/>
<feBlend mode="normal" in="SourceGraphic" in2="effect1_dropShadow_1_31" result="shape"/>
</filter>
</defs>
</svg>
